<svg width="30" height="30" viewBox="0 0 30 30" fill="none" xmlns="http://www.w3.org/2000/svg">
<path fill-rule="evenodd" clip-rule="evenodd" d="M30 15C30 6.71371 23.2863 0 15 0C6.71371 0 0 6.71371 0 15C0 23.2863 6.71371 30 15 30C23.2863 30 30 23.2863 30 15ZM17.8187 13.0644L13.2522 8.68537C12.6655 8.12287 12.6534 7.18537 13.228 6.60473L13.8933 5.94545C14.4558 5.37691 15.3752 5.37691 15.9437 5.94545L23.9699 13.9777C24.5385 14.5402 24.5385 15.4596 23.9699 16.0281L15.9437 24.0483C15.3812 24.6168 14.4619 24.6168 13.8933 24.0483L13.228 23.389C12.6534 22.8144 12.6655 21.8769 13.2522 21.3144L17.8187 16.9354H6.77437C5.96993 16.9354 5.32275 16.2882 5.32275 15.4838V14.516C5.32275 13.7116 5.96993 13.0644 6.77437 13.0644H17.8187Z" fill="#FEBB3A"/>
</svg>
