<svg width="13" height="14" viewBox="0 0 13 14" fill="none" xmlns="http://www.w3.org/2000/svg">
<path fill-rule="evenodd" clip-rule="evenodd" d="M10.1239 1.75H11.4927C12.2484 1.75 12.8615 2.33789 12.8615 3.0625V4.375H0.0859375V3.0625C0.0859375 2.33789 0.699051 1.75 1.45475 1.75H2.82356V0.4375C2.82356 0.196875 3.02888 0 3.27983 0H4.19237C4.44332 0 4.64864 0.196875 4.64864 0.4375V1.75H8.29881V0.4375C8.29881 0.196875 8.50413 0 8.75508 0H9.66762C9.91857 0 10.1239 0.196875 10.1239 0.4375V1.75ZM1.45475 14C0.699051 14 0.0859375 13.4121 0.0859375 12.6875V5.25H12.8615V12.6875C12.8615 13.4121 12.2484 14 11.4927 14H1.45475ZM9.55355 7C9.36534 7 9.21135 7.14766 9.21135 7.32812V8.42188C9.21135 8.60234 9.36534 8.75 9.55355 8.75H10.6942C10.8824 8.75 11.0364 8.60234 11.0364 8.42188V7.32812C11.0364 7.14766 10.8824 7 10.6942 7H9.55355ZM9.21135 10.8281C9.21135 10.6477 9.36534 10.5 9.55355 10.5H10.6942C10.8824 10.5 11.0364 10.6477 11.0364 10.8281V11.9219C11.0364 12.1023 10.8824 12.25 10.6942 12.25H9.55355C9.36534 12.25 9.21135 12.1023 9.21135 11.9219V10.8281ZM5.90324 7C5.71503 7 5.56104 7.14766 5.56104 7.32812V8.42188C5.56104 8.60234 5.71503 8.75 5.90324 8.75H7.04391C7.23213 8.75 7.38612 8.60234 7.38612 8.42188V7.32812C7.38612 7.14766 7.23213 7 7.04391 7H5.90324ZM5.56104 10.8281C5.56104 10.6477 5.71503 10.5 5.90324 10.5H7.04391C7.23213 10.5 7.38612 10.6477 7.38612 10.8281V11.9219C7.38612 12.1023 7.23213 12.25 7.04391 12.25H5.90324C5.71503 12.25 5.56104 12.1023 5.56104 11.9219V10.8281ZM2.25334 7C2.06512 7 1.91113 7.14766 1.91113 7.32812V8.42188C1.91113 8.60234 2.06512 8.75 2.25334 8.75H3.39401C3.58222 8.75 3.73622 8.60234 3.73622 8.42188V7.32812C3.73622 7.14766 3.58222 7 3.39401 7H2.25334ZM1.91113 10.8281C1.91113 10.6477 2.06512 10.5 2.25334 10.5H3.39401C3.58222 10.5 3.73622 10.6477 3.73622 10.8281V11.9219C3.73622 12.1023 3.58222 12.25 3.39401 12.25H2.25334C2.06512 12.25 1.91113 12.1023 1.91113 11.9219V10.8281Z" fill="#9EB2BD"/>
</svg>
