<svg width="18" height="11" viewBox="0 0 18 11" fill="none" xmlns="http://www.w3.org/2000/svg">
<path fill-rule="evenodd" clip-rule="evenodd" d="M9.38971 0.0957715L17.017 2.43913C17.6609 2.6371 17.6609 3.48804 17.017 3.68601L9.38943 6.02937C8.83299 6.20026 8.35775 6.10538 8.11002 6.02937L2.7624 4.38628C2.42744 4.61651 2.21744 4.97964 2.19666 5.39034C2.44795 5.54401 2.62486 5.8087 2.62486 6.12507C2.62486 6.41983 2.46955 6.66784 2.24588 6.82644L2.94396 9.96769C3.00467 10.2408 2.79686 10.5001 2.51686 10.5001H0.982598C0.702871 10.5001 0.495059 10.2408 0.555762 9.96769L1.25385 6.82644C1.03018 6.66784 0.874863 6.41983 0.874863 6.12507C0.874863 5.79995 1.06025 5.52761 1.32357 5.37667C1.34135 4.89487 1.52072 4.45491 1.81248 4.09425L0.482754 3.68573C-0.160918 3.48804 -0.160918 2.63683 0.482754 2.43913L8.11029 0.0957715C8.52565 -0.0319238 8.97408 -0.0319238 9.38971 0.0957715ZM7.85313 6.8659C8.20176 6.97309 8.86648 7.10543 9.6466 6.8659L13.6123 5.64746L14 8.75016C14 9.71676 11.6495 10.5002 8.75 10.5002C5.85047 10.5002 3.5 9.71676 3.5 8.75016L3.88773 5.64773L7.85313 6.8659Z" fill="#9EB2BD"/>
</svg>
