<svg width="26" height="26" viewBox="0 0 26 26" fill="none" xmlns="http://www.w3.org/2000/svg">
<path d="M19.1245 5.56348C18.5756 5.56348 18.0809 5.89424 17.8711 6.40141C17.6613 6.90859 17.7779 7.4922 18.1663 7.8799C18.5548 8.2676 19.1387 8.38297 19.6454 8.17217C20.1522 7.96137 20.4819 7.46596 20.4808 6.91711C20.4793 6.16908 19.8725 5.56348 19.1245 5.56348Z" fill="#172933" stroke="#072D4F" stroke-opacity="0.01"/>
<path fill-rule="evenodd" clip-rule="evenodd" d="M7.39795 13.0006C7.39761 9.85421 9.94791 7.30324 13.0943 7.30273C16.2397 7.30574 18.789 9.85459 18.7925 13C18.7925 16.1464 16.2419 18.6971 13.0955 18.6973C9.94913 18.6974 7.39828 16.147 7.39795 13.0006ZM9.72157 14.3976C10.2868 15.7615 11.618 16.6506 13.0944 16.6502C15.109 16.6477 16.7415 15.0149 16.7435 13.0002C16.7435 11.5238 15.8541 10.1929 14.4901 9.62796C13.126 9.06306 11.556 9.3755 10.5122 10.4196C9.46838 11.4637 9.15633 13.0337 9.72157 14.3976Z" fill="#172933"/>
<path d="M13.0943 7.30273L13.0948 6.80273L13.0942 6.80273L13.0943 7.30273ZM7.39795 13.0006L6.89795 13.0007L7.39795 13.0006ZM18.7925 13H19.2925V12.9994L18.7925 13ZM13.0944 16.6502L13.0945 17.1502H13.095L13.0944 16.6502ZM9.72157 14.3976L9.25966 14.5891L9.72157 14.3976ZM16.7435 13.0002L17.2435 13.0007V13.0002H16.7435ZM10.5122 10.4196L10.1586 10.0661V10.0661L10.5122 10.4196ZM13.0942 6.80273C9.6717 6.80328 6.89759 9.57814 6.89795 13.0007L7.89795 13.0006C7.89764 10.1303 10.2241 7.80319 13.0944 7.80273L13.0942 6.80273ZM19.2925 12.9994C19.2887 9.57829 16.5159 6.806 13.0948 6.80273L13.0938 7.80273C15.9635 7.80548 18.2893 10.1309 18.2925 13.0006L19.2925 12.9994ZM13.0956 19.1973C16.5181 19.1971 19.2925 16.4225 19.2925 13H18.2925C18.2925 15.8703 15.9658 18.1971 13.0955 18.1973L13.0956 19.1973ZM6.89795 13.0007C6.89831 16.4232 9.67302 19.1975 13.0956 19.1973L13.0955 18.1973C10.2252 18.1974 7.89825 15.8708 7.89795 13.0006L6.89795 13.0007ZM13.0943 16.1502C11.8201 16.1505 10.6713 15.3832 10.1835 14.2062L9.25966 14.5891C9.90233 16.1398 11.4159 17.1506 13.0945 17.1502L13.0943 16.1502ZM16.2435 12.9997C16.2417 14.7387 14.8327 16.148 13.0938 16.1502L13.095 17.1502C15.3854 17.1474 17.2412 15.2911 17.2435 13.0007L16.2435 12.9997ZM14.2987 10.0899C15.4759 10.5774 16.2435 11.7261 16.2435 13.0002H17.2435C17.2435 11.3216 16.2322 9.80829 14.6814 9.16601L14.2987 10.0899ZM10.8658 10.7731C11.7666 9.87204 13.1216 9.60239 14.2987 10.0899L14.6814 9.16601C13.1305 8.52372 11.3454 8.87897 10.1586 10.0661L10.8658 10.7731ZM10.1835 14.2062C9.69566 13.0292 9.96497 11.6742 10.8658 10.7731L10.1586 10.0661C8.9718 11.2532 8.617 13.0383 9.25966 14.5891L10.1835 14.2062Z" fill="#072D4F" fill-opacity="0.01"/>
<path fill-rule="evenodd" clip-rule="evenodd" d="M8.38171 24.5672H17.6181C21.4534 24.5627 24.5617 21.4552 24.5672 17.6199V8.38171C24.5627 4.5457 21.4541 1.43713 17.6181 1.43262H8.38171C4.5457 1.43713 1.43713 4.5457 1.43262 8.38171V17.6181C1.43713 21.4541 4.5457 24.5627 8.38171 24.5672ZM3.60889 8.38064C3.61189 5.74598 5.74696 3.61092 8.38161 3.60791L17.618 3.60882C20.2526 3.61183 22.3877 5.74689 22.3907 8.38155V17.6197C22.3877 20.2544 20.2526 22.3895 17.618 22.3925H8.38161C5.74696 22.3895 3.61189 20.2544 3.60889 17.6197V8.38064Z" fill="#172933"/>
<path d="M17.6181 24.5672V25.0672H17.6187L17.6181 24.5672ZM8.38171 24.5672L8.38112 25.0672H8.38171V24.5672ZM24.5672 17.6199L25.0672 17.6206V17.6199H24.5672ZM24.5672 8.38171H25.0672V8.38112L24.5672 8.38171ZM17.6181 1.43262L17.6187 0.932617H17.6181V1.43262ZM8.38171 1.43262V0.932617L8.38112 0.932618L8.38171 1.43262ZM1.43262 8.38171L0.932617 8.38112V8.38171H1.43262ZM1.43262 17.6181H0.932617L0.932618 17.6187L1.43262 17.6181ZM8.38161 3.60791L8.38166 3.10791L8.38104 3.10791L8.38161 3.60791ZM3.60889 8.38064L3.10889 8.38007V8.38064H3.60889ZM17.618 3.60882L17.6185 3.10882H17.618L17.618 3.60882ZM22.3907 8.38155H22.8907V8.38098L22.3907 8.38155ZM22.3907 17.6197L22.8907 17.6203V17.6197H22.3907ZM17.618 22.3925V22.8925H17.6185L17.618 22.3925ZM8.38161 22.3925L8.38104 22.8925H8.38161V22.3925ZM3.60889 17.6197H3.10889L3.10889 17.6203L3.60889 17.6197ZM17.6181 24.0672H8.38171V25.0672H17.6181V24.0672ZM24.0672 17.6192C24.062 21.1788 21.1772 24.063 17.6175 24.0672L17.6187 25.0672C21.7296 25.0623 25.0613 21.7315 25.0672 17.6206L24.0672 17.6192ZM24.0672 8.38171V17.6199H25.0672V8.38171H24.0672ZM17.6175 1.93262C21.1778 1.9368 24.063 4.82197 24.0672 8.3823L25.0672 8.38112C25.0623 4.26943 21.7304 0.93745 17.6187 0.932618L17.6175 1.93262ZM8.38171 1.93262H17.6181V0.932617H8.38171V1.93262ZM1.93262 8.3823C1.9368 4.82197 4.82197 1.9368 8.3823 1.93262L8.38112 0.932618C4.26943 0.93745 0.93745 4.26943 0.932618 8.38112L1.93262 8.3823ZM1.93262 17.6181V8.38171H0.932617V17.6181H1.93262ZM8.3823 24.0672C4.82197 24.063 1.9368 21.1778 1.93262 17.6175L0.932618 17.6187C0.93745 21.7304 4.26943 25.0623 8.38112 25.0672L8.3823 24.0672ZM8.38104 3.10791C5.47069 3.11123 3.11221 5.46971 3.10889 8.38007L4.10889 8.38121C4.11158 6.02225 6.02322 4.1106 8.38218 4.10791L8.38104 3.10791ZM17.618 3.10882L8.38166 3.10791L8.38157 4.10791L17.6179 4.10882L17.618 3.10882ZM22.8907 8.38098C22.8874 5.47062 20.5289 3.11214 17.6185 3.10882L17.6174 4.10882C19.9764 4.11151 21.888 6.02316 21.8907 8.38212L22.8907 8.38098ZM22.8907 17.6197V8.38155H21.8907V17.6197H22.8907ZM17.6185 22.8925C20.5289 22.8891 22.8874 20.5307 22.8907 17.6203L21.8907 17.6192C21.888 19.9781 19.9764 21.8898 17.6174 21.8925L17.6185 22.8925ZM8.38161 22.8925H17.618V21.8925H8.38161V22.8925ZM3.10889 17.6203C3.11221 20.5307 5.47069 22.8891 8.38104 22.8925L8.38218 21.8925C6.02322 21.8898 4.11158 19.9781 4.10889 17.6192L3.10889 17.6203ZM3.10889 8.38064V17.6197H4.10889V8.38064H3.10889Z" fill="#072D4F" fill-opacity="0.01"/>
</svg>
