<svg width="22" height="21" viewBox="0 0 22 21" fill="none" xmlns="http://www.w3.org/2000/svg">
<path fill-rule="evenodd" clip-rule="evenodd" d="M3.40091 1.00015C2.10496 0.970691 1.03028 1.99695 1 3.29288C1.02735 4.59335 2.10032 5.62732 3.40091 5.60652C4.70185 5.62782 5.77538 4.59371 5.80273 3.29288C5.77245 1.99658 4.69721 0.970181 3.40091 1.00015ZM21.0001 20.0909H16.8583V13.8863C16.8583 12.4072 16.8274 10.5118 14.7019 10.5118C12.5455 10.5118 12.2165 12.1181 12.2165 13.7845V20.0909H8.07373V7.3454H12.051V9.08358H12.1092C12.9504 7.74089 14.449 6.95462 16.0319 7.0254C20.2292 7.0254 21.0001 9.66267 21.0001 13.0909V20.0909ZM1.33105 20.0912V7.3457H5.47742V20.0912H1.33105Z" fill="#172933"/>
<path d="M1 3.29288L0.500136 3.2812L0.499877 3.2923L0.500111 3.30339L1 3.29288ZM3.40091 1.00015L3.38955 1.50002L3.40101 1.50028L3.41247 1.50002L3.40091 1.00015ZM3.40091 5.60652L3.4091 5.10658L3.40101 5.10645L3.39291 5.10658L3.40091 5.60652ZM5.80273 3.29288L6.30262 3.30339L6.30285 3.2923L6.30259 3.2812L5.80273 3.29288ZM16.8583 20.0909H16.3583V20.5909H16.8583V20.0909ZM21.0001 20.0909V20.5909H21.5001V20.0909H21.0001ZM12.2165 20.0909V20.5909H12.7165V20.0909H12.2165ZM8.07373 20.0909H7.57373V20.5909H8.07373V20.0909ZM8.07373 7.3454V6.8454H7.57373V7.3454H8.07373ZM12.051 7.3454H12.551V6.8454H12.051V7.3454ZM12.051 9.08358H11.551V9.58358H12.051V9.08358ZM12.1092 9.08358V9.58358H12.3859L12.5329 9.34906L12.1092 9.08358ZM16.0319 7.0254L16.0096 7.5249L16.0207 7.5254H16.0319V7.0254ZM1.33105 7.3457V6.8457H0.831055V7.3457H1.33105ZM1.33105 20.0912H0.831055V20.5912H1.33105V20.0912ZM5.47742 7.3457H5.97742V6.8457H5.47742V7.3457ZM5.47742 20.0912V20.5912H5.97742V20.0912H5.47742ZM1.49986 3.30456C1.52369 2.28457 2.36954 1.47683 3.38955 1.50002L3.41227 0.500281C1.84037 0.464547 0.536862 1.70932 0.500136 3.2812L1.49986 3.30456ZM3.39291 5.10658C2.36745 5.12298 1.52145 4.30773 1.49989 3.28237L0.500111 3.30339C0.533246 4.87896 1.83319 6.13165 3.4089 6.10645L3.39291 5.10658ZM5.30284 3.28237C5.28127 4.30802 4.43484 5.12338 3.4091 5.10658L3.39272 6.10645C4.96886 6.13226 6.26948 4.87939 6.30262 3.30339L5.30284 3.28237ZM3.41247 1.50002C4.43275 1.47643 5.27903 2.28428 5.30286 3.30455L6.30259 3.2812C6.26587 1.70889 4.96168 0.463932 3.38935 0.500285L3.41247 1.50002ZM16.8583 20.5909H21.0001V19.5909H16.8583V20.5909ZM16.3583 13.8863V20.0909H17.3583V13.8863H16.3583ZM14.7019 11.0118C15.158 11.0118 15.4563 11.1127 15.6585 11.2473C15.8602 11.3815 16.0076 11.5765 16.1153 11.836C16.3436 12.3861 16.3583 13.1242 16.3583 13.8863H17.3583C17.3583 13.1693 17.3575 12.2202 17.0389 11.4527C16.8733 11.0536 16.6144 10.6822 16.2125 10.4148C15.8112 10.1477 15.3085 10.0118 14.7019 10.0118V11.0118ZM12.7165 13.7845C12.7165 12.9615 12.8027 12.2602 13.0837 11.7731C13.2174 11.5412 13.3949 11.3591 13.6375 11.2308C13.8838 11.1006 14.2243 11.0118 14.7019 11.0118V10.0118C14.1013 10.0118 13.592 10.1237 13.1701 10.3468C12.7446 10.5718 12.4355 10.8954 12.2174 11.2734C11.7948 12.0061 11.7165 12.9411 11.7165 13.7845H12.7165ZM12.7165 20.0909V13.7845H11.7165V20.0909H12.7165ZM8.07373 20.5909H12.2165V19.5909H8.07373V20.5909ZM7.57373 7.3454V20.0909H8.57373V7.3454H7.57373ZM12.051 6.8454H8.07373V7.8454H12.051V6.8454ZM12.551 9.08358V7.3454H11.551V9.08358H12.551ZM12.1092 8.58358H12.051V9.58358H12.1092V8.58358ZM16.0542 6.5259C14.2914 6.44707 12.6224 7.32274 11.6855 8.81811L12.5329 9.34906C13.2785 8.15903 14.6067 7.46217 16.0096 7.5249L16.0542 6.5259ZM21.5001 13.0909C21.5001 11.3643 21.3117 9.71695 20.5074 8.4973C19.6711 7.22909 18.2442 6.5254 16.0319 6.5254V7.5254C18.0169 7.5254 19.0741 8.14035 19.6726 9.04782C20.303 10.0039 20.5001 11.3892 20.5001 13.0909H21.5001ZM21.5001 20.0909V13.0909H20.5001V20.0909H21.5001ZM0.831055 7.3457V20.0912H1.83105V7.3457H0.831055ZM5.47742 6.8457H1.33105V7.8457H5.47742V6.8457ZM5.97742 20.0912V7.3457H4.97742V20.0912H5.97742ZM1.33105 20.5912H5.47742V19.5912H1.33105V20.5912Z" fill="#072D4F" fill-opacity="0.01"/>
</svg>
