<svg width="15" height="11" viewBox="0 0 15 11" fill="none" xmlns="http://www.w3.org/2000/svg">
<path fill-rule="evenodd" clip-rule="evenodd" d="M9.15064 6.36403C8.63549 6.76214 7.88408 7.34283 7.33333 7.33333C6.78259 7.34283 6.03117 6.76214 5.51602 6.36403C5.40955 6.28174 5.31316 6.20726 5.23073 6.1474C1.70755 3.59063 1.20124 3.19441 0.448118 2.60502C0.388666 2.5585 0.327675 2.51077 0.263542 2.46068C0.0973958 2.32891 0 2.13125 0 1.91927V1.375C0 0.615885 0.615885 0 1.375 0H13.2917C14.0508 0 14.6667 0.615885 14.6667 1.375V1.91927C14.6667 2.13125 14.5693 2.33177 14.4031 2.46068C14.354 2.49922 14.3067 2.53637 14.2605 2.57263C13.4831 3.18308 13.0241 3.54347 9.43594 6.1474C9.35351 6.20726 9.25712 6.28174 9.15064 6.36403ZM14.6667 3.76704C14.6667 3.62667 14.5005 3.5436 14.3888 3.6324C13.7471 4.13084 12.8992 4.76678 9.97734 6.88943C9.8887 6.95405 9.78942 7.03086 9.68116 7.1146C9.07923 7.58022 8.20011 8.26026 7.33333 8.25297C6.47057 8.25783 5.60575 7.59053 4.99427 7.11869C4.885 7.03438 4.78382 6.95631 4.69219 6.88943C1.77031 4.76678 0.919531 4.1337 0.277865 3.63526C0.163281 3.54646 0 3.62667 0 3.7699V9.62511C0 10.3842 0.615885 11.0001 1.375 11.0001H13.2917C14.0508 11.0001 14.6667 10.3842 14.6667 9.62511V3.76704Z" fill="#05213B"/>
</svg>
