<svg width="23" height="19" viewBox="0 0 23 19" fill="none" xmlns="http://www.w3.org/2000/svg">
<path fill-rule="evenodd" clip-rule="evenodd" d="M0.791667 2.75806H21.375C21.8122 2.75806 22.1667 2.48368 22.1667 2.14516V0.612903C22.1667 0.274389 21.8122 0 21.375 0H0.791667C0.354419 0 0 0.274389 0 0.612903V2.14516C0 2.48368 0.354419 2.75806 0.791667 2.75806ZM0.791667 10.879H21.375C21.8122 10.879 22.1667 10.6046 22.1667 10.2661V8.73387C22.1667 8.39536 21.8122 8.12097 21.375 8.12097H0.791667C0.354419 8.12097 0 8.39536 0 8.73387V10.2661C0 10.6046 0.354419 10.879 0.791667 10.879ZM21.375 19H0.791667C0.354419 19 0 18.7256 0 18.3871V16.8548C0 16.5163 0.354419 16.2419 0.791667 16.2419H21.375C21.8122 16.2419 22.1667 16.5163 22.1667 16.8548V18.3871C22.1667 18.7256 21.8122 19 21.375 19Z" fill="#05213B"/>
</svg>
