<svg width="14" height="18" viewBox="0 0 14 18" fill="none" xmlns="http://www.w3.org/2000/svg">
<path fill-rule="evenodd" clip-rule="evenodd" d="M11.9148 0.150676C14.0291 2.668 14.0274 6.33403 11.9148 8.84931C11.7575 9.03659 11.4743 9.05132 11.2977 8.88211L11.0939 8.68675C10.9336 8.53308 10.9189 8.28144 11.0612 8.11093C12.808 6.0178 12.8066 2.98047 11.0612 0.889062C10.9189 0.718554 10.9336 0.466906 11.0939 0.313238L11.2977 0.117875C11.4743 -0.0513321 11.7575 -0.0366016 11.9148 0.150676ZM3.42187 1.30194C-1.13723 5.86103 -1.14401 13.2571 3.42187 17.823C3.62085 18.022 3.93081 18.0573 4.16943 17.9082L6.44815 16.4839C6.69612 16.3289 6.79753 16.0186 6.68894 15.7471L5.54959 12.8986C5.4496 12.6487 5.1963 12.495 4.92842 12.5218L2.96631 12.718C2.24167 10.7126 2.22624 8.45518 2.96631 6.40694L4.92838 6.60311C5.19627 6.6299 5.44957 6.47624 5.54956 6.22627L6.6889 3.37788C6.79751 3.10637 6.6961 2.79605 6.44812 2.64107L4.16939 1.21679C3.93258 1.06878 3.62219 1.10162 3.42187 1.30194ZM8.68779 5.64357C9.10375 4.93879 9.10375 4.06125 8.68779 3.35648C8.54892 3.12118 8.22696 3.07667 8.02973 3.26574L7.81967 3.46704C7.68218 3.59881 7.65113 3.80532 7.74018 3.97364C7.91412 4.30301 7.91412 4.69703 7.74018 5.0264C7.65117 5.19473 7.68218 5.40123 7.81967 5.533L8.02973 5.7343C8.22696 5.92337 8.54892 5.87887 8.68779 5.64357ZM10.2987 7.26936C11.5681 5.63821 11.5661 3.35914 10.2987 1.73063C10.1444 1.53232 9.85233 1.51087 9.67096 1.68479L9.46642 1.88093C9.31173 2.02928 9.29071 2.27098 9.42124 2.441C10.3541 3.65607 10.3542 5.34385 9.42124 6.55899C9.29071 6.72901 9.31173 6.97074 9.46642 7.11906L9.67096 7.3152C9.85233 7.48912 10.1444 7.46767 10.2987 7.26936Z" fill="#05213B"/>
</svg>
