<svg width="20" height="21" viewBox="0 0 20 21" fill="none" xmlns="http://www.w3.org/2000/svg">
<path d="M19.7279 17.2942L15.8331 13.3994C15.6573 13.2236 15.419 13.126 15.169 13.126H14.5322C15.6104 11.747 16.2511 10.0125 16.2511 8.1256C16.2511 3.63698 12.6141 0 8.12554 0C3.63696 0 0 3.63698 0 8.1256C0 12.6142 3.63696 16.2512 8.12554 16.2512C10.0124 16.2512 11.7469 15.6105 13.1259 14.5323C14.5049 13.4541 13.1259 15.1691 13.1259 15.1691C13.1259 15.4191 13.2235 15.6574 13.3993 15.8332L17.2941 19.728C17.6613 20.0952 18.2551 20.0952 18.6184 19.728L19.724 18.6225C20.0912 18.2552 20.0912 17.6614 19.7279 17.2942ZM8.12554 13.126C5.36364 13.126 3.12521 10.8914 3.12521 8.1256C3.12521 5.36367 5.35973 3.12523 8.12554 3.12523C10.8874 3.12523 13.1259 5.35977 13.1259 8.1256C13.1259 10.8875 10.8914 13.126 8.12554 13.126Z" fill="white"/>
</svg>
