<svg width="208" height="82" viewBox="0 0 208 82" fill="none" xmlns="http://www.w3.org/2000/svg">
<path d="M0 25V71.9395C0 71.9395 18.715 71.2392 40.5 82C62.285 71.2392 81 71.9395 81 71.9395V25C81 25 58.9113 25 40.5 35.0605C22.0887 25 0 25 0 25Z" fill="#172933"/>
<path d="M40.5 25C47.4036 25 53 19.4036 53 12.5C53 5.59644 47.4036 0 40.5 0C33.5964 0 28 5.59644 28 12.5C28 19.4036 33.5964 25 40.5 25Z" fill="#FEBB3A"/>
<path d="M126.527 46C124.118 46 121.959 45.6059 120.05 44.8178C118.141 44.0297 116.608 42.8632 115.45 41.3185C114.324 39.7738 113.729 37.9138 113.667 35.7385H122.209C122.334 36.968 122.756 37.9138 123.476 38.5758C124.196 39.2063 125.135 39.5216 126.292 39.5216C127.481 39.5216 128.42 39.2536 129.108 38.7177C129.797 38.1502 130.141 37.3778 130.141 36.4006C130.141 35.5809 129.859 34.9031 129.296 34.3672C128.764 33.8312 128.092 33.3899 127.278 33.0431C126.496 32.6963 125.369 32.3023 123.899 31.8609C121.771 31.1989 120.034 30.5369 118.689 29.8748C117.343 29.2128 116.185 28.2355 115.215 26.943C114.245 25.6504 113.76 23.9638 113.76 21.8832C113.76 18.7937 114.871 16.382 117.093 14.6481C119.314 12.8827 122.209 12 125.776 12C129.406 12 132.331 12.8827 134.553 14.6481C136.775 16.382 137.964 18.8095 138.12 21.9305H129.437C129.374 20.8586 128.983 20.0232 128.264 19.4242C127.544 18.7937 126.621 18.4784 125.494 18.4784C124.524 18.4784 123.742 18.7464 123.148 19.2823C122.553 19.7867 122.256 20.5276 122.256 21.5049C122.256 22.5767 122.756 23.4121 123.758 24.0111C124.759 24.6101 126.324 25.2564 128.451 25.9499C130.579 26.675 132.3 27.3686 133.614 28.0306C134.96 28.6926 136.118 29.6542 137.088 30.9152C138.058 32.1762 138.543 33.7997 138.543 35.7858C138.543 37.6773 138.058 39.3955 137.088 40.9402C136.149 42.4849 134.772 43.7144 132.957 44.6287C131.142 45.5429 128.999 46 126.527 46Z" fill="#172933"/>
<path d="M164.462 45.669L153.385 31.0097V45.669H145.359V12.4729H153.385V27.0376L164.369 12.4729H173.803L161.036 28.7399L174.272 45.669H164.462Z" fill="#172933"/>
<path d="M203.667 12.4729V18.9513H194.936V45.669H186.91V18.9513H178.18V12.4729H203.667Z" fill="#172933"/>
<path d="M113.667 62.2911C113.667 60.6752 114.029 59.2257 114.755 57.9426C115.48 56.6436 116.465 55.6297 117.711 54.901C118.973 54.1723 120.368 53.8079 121.898 53.8079C123.695 53.8079 125.264 54.2436 126.604 55.1149C127.945 55.9861 128.922 57.2218 129.537 58.8218H126.959C126.502 57.8238 125.84 57.0554 124.972 56.5168C124.121 55.9782 123.096 55.7089 121.898 55.7089C120.747 55.7089 119.714 55.9782 118.799 56.5168C117.885 57.0554 117.167 57.8238 116.647 58.8218C116.126 59.804 115.866 60.9604 115.866 62.2911C115.866 63.6059 116.126 64.7624 116.647 65.7604C117.167 66.7426 117.885 67.503 118.799 68.0416C119.714 68.5802 120.747 68.8495 121.898 68.8495C123.096 68.8495 124.121 68.5881 124.972 68.0653C125.84 67.5267 126.502 66.7584 126.959 65.7604H129.537C128.922 67.3446 127.945 68.5723 126.604 69.4436C125.264 70.299 123.695 70.7267 121.898 70.7267C120.368 70.7267 118.973 70.3703 117.711 69.6574C116.465 68.9287 115.48 67.9228 114.755 66.6396C114.029 65.3564 113.667 63.9069 113.667 62.2911Z" fill="#172933"/>
<path d="M139.34 70.798C138.126 70.798 137.023 70.5208 136.029 69.9663C135.051 69.4119 134.279 68.6277 133.711 67.6139C133.159 66.5842 132.883 65.396 132.883 64.0495C132.883 62.7188 133.167 61.5465 133.735 60.5327C134.318 59.503 135.107 58.7188 136.1 58.1802C137.093 57.6257 138.205 57.3485 139.435 57.3485C140.665 57.3485 141.777 57.6257 142.77 58.1802C143.763 58.7188 144.544 59.495 145.112 60.5089C145.695 61.5228 145.987 62.703 145.987 64.0495C145.987 65.396 145.687 66.5842 145.088 67.6139C144.505 68.6277 143.708 69.4119 142.699 69.9663C141.69 70.5208 140.57 70.798 139.34 70.798ZM139.34 68.897C140.113 68.897 140.838 68.7149 141.516 68.3505C142.195 67.9861 142.739 67.4396 143.149 66.7109C143.574 65.9822 143.787 65.095 143.787 64.0495C143.787 63.004 143.582 62.1168 143.172 61.3881C142.762 60.6594 142.226 60.1208 141.564 59.7723C140.902 59.4079 140.184 59.2257 139.411 59.2257C138.623 59.2257 137.898 59.4079 137.235 59.7723C136.589 60.1208 136.069 60.6594 135.674 61.3881C135.28 62.1168 135.083 63.004 135.083 64.0495C135.083 65.1109 135.272 66.0059 135.651 66.7347C136.045 67.4634 136.565 68.0099 137.212 68.3743C137.858 68.7228 138.568 68.897 139.34 68.897Z" fill="#172933"/>
<path d="M151.915 53V70.5842H149.763V53H151.915Z" fill="#172933"/>
<path d="M158.682 53V70.5842H156.53V53H158.682Z" fill="#172933"/>
<path d="M175.123 63.5743C175.123 63.9861 175.099 64.4218 175.052 64.8812H164.692C164.771 66.1644 165.205 67.1703 165.993 67.899C166.797 68.6119 167.767 68.9683 168.902 68.9683C169.833 68.9683 170.605 68.7545 171.22 68.3267C171.851 67.8832 172.293 67.297 172.545 66.5683H174.863C174.516 67.8198 173.822 68.8416 172.781 69.6337C171.741 70.4099 170.448 70.798 168.902 70.798C167.672 70.798 166.569 70.5208 165.591 69.9663C164.629 69.4119 163.872 68.6277 163.32 67.6139C162.768 66.5842 162.492 65.396 162.492 64.0495C162.492 62.703 162.761 61.5228 163.297 60.5089C163.833 59.495 164.582 58.7188 165.544 58.1802C166.521 57.6257 167.641 57.3485 168.902 57.3485C170.132 57.3485 171.22 57.6178 172.166 58.1564C173.112 58.695 173.838 59.4396 174.342 60.3901C174.863 61.3248 175.123 62.3861 175.123 63.5743ZM172.9 63.1228C172.9 62.299 172.718 61.5941 172.356 61.0079C171.993 60.4059 171.496 59.9545 170.865 59.6535C170.251 59.3366 169.565 59.1782 168.808 59.1782C167.72 59.1782 166.789 59.5267 166.017 60.2238C165.26 60.9208 164.826 61.8871 164.716 63.1228H172.9Z" fill="#172933"/>
<path d="M184.256 57.3485C185.375 57.3485 186.353 57.5941 187.189 58.0851C188.04 58.5762 188.671 59.1941 189.081 59.9386V57.5624H191.257V70.8693C191.257 72.0574 191.004 73.1109 190.5 74.0297C189.995 74.9644 189.27 75.6931 188.324 76.2158C187.394 76.7386 186.306 77 185.06 77C183.357 77 181.938 76.596 180.802 75.7881C179.667 74.9802 178.997 73.8792 178.792 72.4852H180.921C181.157 73.2772 181.646 73.9109 182.387 74.3861C183.128 74.8772 184.019 75.1228 185.06 75.1228C186.242 75.1228 187.204 74.7505 187.945 74.0059C188.702 73.2614 189.081 72.2158 189.081 70.8693V68.1366C188.655 68.897 188.024 69.5307 187.189 70.0376C186.353 70.5446 185.375 70.798 184.256 70.798C183.105 70.798 182.056 70.5129 181.11 69.9426C180.179 69.3723 179.446 68.5723 178.91 67.5426C178.374 66.5129 178.106 65.3406 178.106 64.0257C178.106 62.695 178.374 61.5307 178.91 60.5327C179.446 59.5188 180.179 58.7347 181.11 58.1802C182.056 57.6257 183.105 57.3485 184.256 57.3485ZM189.081 64.0495C189.081 63.0673 188.884 62.2119 188.489 61.4832C188.095 60.7545 187.559 60.2 186.881 59.8198C186.219 59.4238 185.486 59.2257 184.681 59.2257C183.877 59.2257 183.144 59.4158 182.482 59.796C181.819 60.1762 181.291 60.7307 180.897 61.4594C180.503 62.1881 180.306 63.0436 180.306 64.0257C180.306 65.0238 180.503 65.8951 180.897 66.6396C181.291 67.3683 181.819 67.9307 182.482 68.3267C183.144 68.7069 183.877 68.897 184.681 68.897C185.486 68.897 186.219 68.7069 186.881 68.3267C187.559 67.9307 188.095 67.3683 188.489 66.6396C188.884 65.8951 189.081 65.0317 189.081 64.0495Z" fill="#172933"/>
<path d="M207.667 63.5743C207.667 63.9861 207.643 64.4218 207.596 64.8812H197.236C197.315 66.1644 197.748 67.1703 198.537 67.899C199.341 68.6119 200.311 68.9683 201.446 68.9683C202.376 68.9683 203.149 68.7545 203.764 68.3267C204.395 67.8832 204.836 67.297 205.088 66.5683H207.406C207.059 67.8198 206.366 68.8416 205.325 69.6337C204.284 70.4099 202.991 70.798 201.446 70.798C200.216 70.798 199.112 70.5208 198.135 69.9663C197.173 69.4119 196.416 68.6277 195.864 67.6139C195.312 66.5842 195.036 65.396 195.036 64.0495C195.036 62.703 195.304 61.5228 195.84 60.5089C196.376 59.495 197.125 58.7188 198.087 58.1802C199.065 57.6257 200.184 57.3485 201.446 57.3485C202.676 57.3485 203.764 57.6178 204.71 58.1564C205.656 58.695 206.381 59.4396 206.886 60.3901C207.406 61.3248 207.667 62.3861 207.667 63.5743ZM205.443 63.1228C205.443 62.299 205.262 61.5941 204.899 61.0079C204.536 60.4059 204.04 59.9545 203.409 59.6535C202.794 59.3366 202.108 59.1782 201.351 59.1782C200.263 59.1782 199.333 59.5267 198.56 60.2238C197.803 60.9208 197.37 61.8871 197.259 63.1228H205.443Z" fill="#172933"/>
</svg>
