<svg width="192" height="75" viewBox="0 0 192 75" fill="none" xmlns="http://www.w3.org/2000/svg">
<path d="M11 17.8V52.0028C11 52.0028 24.709 51.4925 40.6667 59.3334C56.6244 51.4925 70.3333 52.0028 70.3333 52.0028V17.8C70.3333 17.8 54.1531 17.8 40.6667 25.1307C27.1802 17.8 11 17.8 11 17.8Z" fill="#172933"/>
<path d="M40.6666 17.8C45.5819 17.8 49.5666 13.8153 49.5666 8.9C49.5666 3.98467 45.5819 0 40.6666 0C35.7513 0 31.7666 3.98467 31.7666 8.9C31.7666 13.8153 35.7513 17.8 40.6666 17.8Z" fill="#FEBB3A"/>
<path d="M105.367 35.95C102.8 35.95 100.5 35.5333 98.4665 34.7C96.4332 33.8667 94.7998 32.6333 93.5665 31C92.3665 29.3667 91.7332 27.4 91.6665 25.1H100.767C100.9 26.4 101.35 27.4 102.117 28.1C102.883 28.7667 103.883 29.1 105.117 29.1C106.383 29.1 107.383 28.8167 108.117 28.25C108.85 27.65 109.217 26.8333 109.217 25.8C109.217 24.9333 108.917 24.2167 108.317 23.65C107.75 23.0833 107.033 22.6167 106.167 22.25C105.333 21.8833 104.133 21.4667 102.567 21C100.3 20.3 98.4498 19.6 97.0165 18.9C95.5832 18.2 94.3498 17.1667 93.3165 15.8C92.2832 14.4333 91.7665 12.65 91.7665 10.45C91.7665 7.18333 92.9498 4.63333 95.3165 2.8C97.6832 0.933333 100.767 0 104.567 0C108.433 0 111.55 0.933333 113.917 2.8C116.283 4.63333 117.55 7.2 117.717 10.5H108.467C108.4 9.36667 107.983 8.48333 107.217 7.85C106.45 7.18333 105.467 6.85 104.267 6.85C103.233 6.85 102.4 7.13333 101.767 7.7C101.133 8.23333 100.817 9.01667 100.817 10.05C100.817 11.1833 101.35 12.0667 102.417 12.7C103.483 13.3333 105.15 14.0167 107.417 14.75C109.683 15.5167 111.517 16.25 112.917 16.95C114.35 17.65 115.583 18.6667 116.617 20C117.65 21.3333 118.167 23.05 118.167 25.15C118.167 27.15 117.65 28.9667 116.617 30.6C115.617 32.2333 114.15 33.5333 112.217 34.5C110.283 35.4667 108 35.95 105.367 35.95Z" fill="#172933"/>
<path d="M145.778 35.6L133.978 20.1V35.6H125.428V0.499999H133.978V15.9L145.678 0.499999H155.728L142.128 17.7L156.228 35.6H145.778Z" fill="#172933"/>
<path d="M187.542 0.499999V7.35H178.242V35.6H169.692V7.35H160.392V0.499999H187.542Z" fill="#172933"/>
<path d="M91.6665 50.77C91.6665 49.41 91.9732 48.19 92.5865 47.11C93.1998 46.0167 94.0332 45.1633 95.0865 44.55C96.1532 43.9367 97.3332 43.63 98.6265 43.63C100.147 43.63 101.473 43.9967 102.607 44.73C103.74 45.4633 104.567 46.5033 105.087 47.85H102.907C102.52 47.01 101.96 46.3633 101.227 45.91C100.507 45.4567 99.6398 45.23 98.6265 45.23C97.6532 45.23 96.7798 45.4567 96.0065 45.91C95.2332 46.3633 94.6265 47.01 94.1865 47.85C93.7465 48.6767 93.5265 49.65 93.5265 50.77C93.5265 51.8767 93.7465 52.85 94.1865 53.69C94.6265 54.5167 95.2332 55.1567 96.0065 55.61C96.7798 56.0633 97.6532 56.29 98.6265 56.29C99.6398 56.29 100.507 56.07 101.227 55.63C101.96 55.1767 102.52 54.53 102.907 53.69H105.087C104.567 55.0233 103.74 56.0567 102.607 56.79C101.473 57.51 100.147 57.87 98.6265 57.87C97.3332 57.87 96.1532 57.57 95.0865 56.97C94.0332 56.3567 93.1998 55.51 92.5865 54.43C91.9732 53.35 91.6665 52.13 91.6665 50.77Z" fill="#172933"/>
<path d="M113.376 57.93C112.349 57.93 111.416 57.6967 110.576 57.23C109.749 56.7633 109.096 56.1033 108.616 55.25C108.149 54.3833 107.916 53.3833 107.916 52.25C107.916 51.13 108.156 50.1433 108.636 49.29C109.129 48.4233 109.796 47.7633 110.636 47.31C111.476 46.8433 112.416 46.61 113.456 46.61C114.496 46.61 115.436 46.8433 116.276 47.31C117.116 47.7633 117.776 48.4167 118.256 49.27C118.749 50.1233 118.996 51.1167 118.996 52.25C118.996 53.3833 118.742 54.3833 118.236 55.25C117.742 56.1033 117.069 56.7633 116.216 57.23C115.362 57.6967 114.416 57.93 113.376 57.93ZM113.376 56.33C114.029 56.33 114.642 56.1767 115.216 55.87C115.789 55.5633 116.249 55.1033 116.596 54.49C116.956 53.8767 117.136 53.13 117.136 52.25C117.136 51.37 116.962 50.6233 116.616 50.01C116.269 49.3967 115.816 48.9433 115.256 48.65C114.696 48.3433 114.089 48.19 113.436 48.19C112.769 48.19 112.156 48.3433 111.596 48.65C111.049 48.9433 110.609 49.3967 110.276 50.01C109.942 50.6233 109.776 51.37 109.776 52.25C109.776 53.1433 109.936 53.8967 110.256 54.51C110.589 55.1233 111.029 55.5833 111.576 55.89C112.122 56.1833 112.722 56.33 113.376 56.33Z" fill="#172933"/>
<path d="M124.009 42.95V57.75H122.189V42.95H124.009Z" fill="#172933"/>
<path d="M129.731 42.95V57.75H127.911V42.95H129.731Z" fill="#172933"/>
<path d="M143.632 51.85C143.632 52.1967 143.612 52.5633 143.572 52.95H134.812C134.879 54.03 135.246 54.8767 135.912 55.49C136.592 56.09 137.412 56.39 138.372 56.39C139.159 56.39 139.812 56.21 140.332 55.85C140.866 55.4767 141.239 54.9833 141.452 54.37H143.412C143.119 55.4233 142.532 56.2833 141.652 56.95C140.772 57.6033 139.679 57.93 138.372 57.93C137.332 57.93 136.399 57.6967 135.572 57.23C134.759 56.7633 134.119 56.1033 133.652 55.25C133.186 54.3833 132.952 53.3833 132.952 52.25C132.952 51.1167 133.179 50.1233 133.632 49.27C134.086 48.4167 134.719 47.7633 135.532 47.31C136.359 46.8433 137.306 46.61 138.372 46.61C139.412 46.61 140.332 46.8367 141.132 47.29C141.932 47.7433 142.546 48.37 142.972 49.17C143.412 49.9567 143.632 50.85 143.632 51.85ZM141.752 51.47C141.752 50.7767 141.599 50.1833 141.292 49.69C140.986 49.1833 140.566 48.8033 140.032 48.55C139.512 48.2833 138.932 48.15 138.292 48.15C137.372 48.15 136.586 48.4433 135.932 49.03C135.292 49.6167 134.926 50.43 134.832 51.47H141.752Z" fill="#172933"/>
<path d="M151.355 46.61C152.301 46.61 153.128 46.8167 153.835 47.23C154.555 47.6433 155.088 48.1633 155.435 48.79V46.79H157.275V57.99C157.275 58.99 157.061 59.8767 156.635 60.65C156.208 61.4367 155.595 62.05 154.795 62.49C154.008 62.93 153.088 63.15 152.035 63.15C150.595 63.15 149.395 62.81 148.435 62.13C147.475 61.45 146.908 60.5233 146.735 59.35H148.535C148.735 60.0167 149.148 60.55 149.775 60.95C150.401 61.3633 151.155 61.57 152.035 61.57C153.035 61.57 153.848 61.2567 154.475 60.63C155.115 60.0033 155.435 59.1233 155.435 57.99V55.69C155.075 56.33 154.541 56.8633 153.835 57.29C153.128 57.7167 152.301 57.93 151.355 57.93C150.381 57.93 149.495 57.69 148.695 57.21C147.908 56.73 147.288 56.0567 146.835 55.19C146.381 54.3233 146.155 53.3367 146.155 52.23C146.155 51.11 146.381 50.13 146.835 49.29C147.288 48.4367 147.908 47.7767 148.695 47.31C149.495 46.8433 150.381 46.61 151.355 46.61ZM155.435 52.25C155.435 51.4233 155.268 50.7033 154.935 50.09C154.601 49.4767 154.148 49.01 153.575 48.69C153.015 48.3567 152.395 48.19 151.715 48.19C151.035 48.19 150.415 48.35 149.855 48.67C149.295 48.99 148.848 49.4567 148.515 50.07C148.181 50.6833 148.015 51.4033 148.015 52.23C148.015 53.07 148.181 53.8033 148.515 54.43C148.848 55.0433 149.295 55.5167 149.855 55.85C150.415 56.17 151.035 56.33 151.715 56.33C152.395 56.33 153.015 56.17 153.575 55.85C154.148 55.5167 154.601 55.0433 154.935 54.43C155.268 53.8033 155.435 53.0767 155.435 52.25Z" fill="#172933"/>
<path d="M171.15 51.85C171.15 52.1967 171.13 52.5633 171.09 52.95H162.33C162.397 54.03 162.764 54.8767 163.43 55.49C164.11 56.09 164.93 56.39 165.89 56.39C166.677 56.39 167.33 56.21 167.85 55.85C168.384 55.4767 168.757 54.9833 168.97 54.37H170.93C170.637 55.4233 170.05 56.2833 169.17 56.95C168.29 57.6033 167.197 57.93 165.89 57.93C164.85 57.93 163.917 57.6967 163.09 57.23C162.277 56.7633 161.637 56.1033 161.17 55.25C160.704 54.3833 160.47 53.3833 160.47 52.25C160.47 51.1167 160.697 50.1233 161.15 49.27C161.604 48.4167 162.237 47.7633 163.05 47.31C163.877 46.8433 164.824 46.61 165.89 46.61C166.93 46.61 167.85 46.8367 168.65 47.29C169.45 47.7433 170.064 48.37 170.49 49.17C170.93 49.9567 171.15 50.85 171.15 51.85ZM169.27 51.47C169.27 50.7767 169.117 50.1833 168.81 49.69C168.504 49.1833 168.084 48.8033 167.55 48.55C167.03 48.2833 166.45 48.15 165.81 48.15C164.89 48.15 164.104 48.4433 163.45 49.03C162.81 49.6167 162.444 50.43 162.35 51.47H169.27Z" fill="#172933"/>
</svg>
