<svg width="24" height="20" viewBox="0 0 24 20" fill="none" xmlns="http://www.w3.org/2000/svg">
<path d="M21.2806 4.8617C21.2951 5.07079 21.2951 5.27897 21.2951 5.48806C21.2951 11.8562 16.6087 19.1944 8.04238 19.1944C5.49652 19.1981 3.00696 18.4453 0.889648 17.0317C1.26294 17.0743 1.63848 17.0944 2.01419 17.0917C4.12209 17.0936 6.16579 16.3665 7.79874 15.0335C5.77867 14.9748 4.02348 13.6285 3.44328 11.6926C3.73424 11.7402 4.02846 11.7652 4.32328 11.7672C4.73714 11.766 5.14908 11.711 5.54874 11.6035C3.34242 11.1093 1.78397 9.13705 1.81328 6.87624V6.81533C2.45513 7.18693 3.1777 7.3969 3.91874 7.42715C2.60869 6.51245 1.83204 5.01218 1.84147 3.41442C1.8391 2.56264 2.0584 1.72489 2.47783 0.983516C4.8003 3.97205 8.30176 5.81013 12.0806 6.02442C12.0058 5.66156 11.9671 5.29218 11.9651 4.9217C11.9435 3.66509 12.4221 2.45138 13.2955 1.54773C14.169 0.644075 15.3658 0.124553 16.6224 0.103516C17.9214 0.104456 19.1587 0.657377 20.026 1.62442C21.0721 1.41525 22.0725 1.02153 22.9806 0.461697C22.6408 1.56486 21.9133 2.50778 20.9324 3.11624C21.8602 3.0071 22.7657 2.75567 23.6169 2.37079C22.9835 3.32641 22.1937 4.16849 21.2806 4.8617Z" fill="#172933"/>
</svg>
