<svg width="14" height="13" viewBox="0 0 14 13" fill="none" xmlns="http://www.w3.org/2000/svg">
<path fill-rule="evenodd" clip-rule="evenodd" d="M13.9286 2.78572V3.25001C13.9286 3.37821 13.8246 3.48215 13.6964 3.48215H13V3.83036C13 4.02266 12.8441 4.17858 12.6518 4.17858H1.27678C1.08448 4.17858 0.928571 4.02266 0.928571 3.83036V3.48215H0.232143C0.103934 3.48215 0 3.37821 0 3.25001V2.78572C0 2.6918 0.0565939 2.60713 0.143377 2.57122L6.87552 0.0176507C6.93235 -0.00588357 6.99621 -0.00588357 7.05305 0.0176507L13.7852 2.57122C13.872 2.60713 13.9286 2.6918 13.9286 2.78572ZM13.2321 11.6071H0.696428C0.311797 11.6071 0 11.9189 0 12.3036V12.7679C0 12.8961 0.103934 13 0.232143 13H13.6964C13.8246 13 13.9286 12.8961 13.9286 12.7679V12.3036C13.9286 11.9189 13.6168 11.6071 13.2321 11.6071ZM2.32157 10.2142V4.64282H4.17871V10.2142H6.03585V4.64282H7.89299V10.2142H9.75013V4.64282H11.6073V10.2142H12.6519C12.8442 10.2142 13.0001 10.3702 13.0001 10.5625V11.1428H0.928711V10.5625C0.928711 10.3702 1.08462 10.2142 1.27692 10.2142H2.32157Z" fill="#9EB2BD"/>
</svg>
