<svg width="31" height="31" viewBox="0 0 31 31" fill="none" xmlns="http://www.w3.org/2000/svg">
<path d="M15.5 0C19.6109 0 23.5533 1.63303 26.4602 4.53984C29.367 7.44666 31 11.3891 31 15.5C31 19.6109 29.367 23.5533 26.4602 26.4602C23.5533 29.367 19.6109 31 15.5 31C11.3891 31 7.44666 29.367 4.53984 26.4602C1.63303 23.5533 0 19.6109 0 15.5C0 11.3891 1.63303 7.44666 4.53984 4.53984C7.44666 1.63303 11.3891 0 15.5 0ZM15.5 28.7857C19.0236 28.7857 22.4029 27.386 24.8944 24.8944C27.386 22.4029 28.7857 19.0236 28.7857 15.5C28.7857 11.9764 27.386 8.59714 24.8944 6.10558C22.4029 3.61403 19.0236 2.21429 15.5 2.21429C11.9764 2.21429 8.59714 3.61403 6.10558 6.10558C3.61403 8.59714 2.21429 11.9764 2.21429 15.5C2.21429 19.0236 3.61403 22.4029 6.10558 24.8944C8.59714 27.386 11.9764 28.7857 15.5 28.7857ZM13.8393 20.2186L20.9184 15.5L13.8393 10.7814V20.2186ZM14.2069 8.36336L22.8381 14.1183C23.0656 14.2699 23.2521 14.4754 23.3811 14.7164C23.51 14.9575 23.5775 15.2266 23.5775 15.5C23.5775 15.7734 23.51 16.0425 23.3811 16.2836C23.2521 16.5246 23.0656 16.7301 22.8381 16.8817L14.2069 22.6366C13.9568 22.8034 13.6661 22.8991 13.3659 22.9136C13.0657 22.9281 12.7671 22.8609 12.5021 22.719C12.2371 22.5772 12.0156 22.3661 11.8611 22.1083C11.7066 21.8504 11.625 21.5555 11.625 21.2549V9.74286C11.625 9.44228 11.7066 9.14735 11.8611 8.88951C12.0156 8.63167 12.2371 8.42058 12.5021 8.27876C12.7671 8.13693 13.0657 8.06969 13.3659 8.0842C13.6661 8.09871 13.9568 8.19442 14.2069 8.36114V8.36336Z" fill="#FEBB3A"/>
</svg>
