<svg width="30" height="22" viewBox="0 0 30 22" fill="none" xmlns="http://www.w3.org/2000/svg">
<path fill-rule="evenodd" clip-rule="evenodd" d="M22.7182 1.37549C26.051 1.37549 28.7527 4.07725 28.7527 7.41003L28.7509 14.5919C28.7509 17.9246 26.0492 20.6264 22.7164 20.6264H7.28455C3.95176 20.6264 1.25 17.9246 1.25 14.5919V7.41003C1.25 4.07725 3.95176 1.37549 7.28455 1.37549H22.7182ZM12.7581 14.9618L19.6772 11.5382H19.6754C19.9563 11.3864 19.6617 10.9846 19.389 10.8255L12.7654 7.22185C12.4935 7.0673 11.5645 7.26367 11.5645 7.57639V14.6037C11.5645 14.9118 12.4854 15.1091 12.7581 14.9618Z" fill="#172933"/>
<path d="M28.7527 7.41003L29.2527 7.41016V7.41003H28.7527ZM28.7509 14.5919L28.2509 14.5917V14.5919H28.7509ZM19.6772 11.5382L19.8989 11.9864L19.6772 11.0382V11.5382ZM12.7581 14.9618L12.5363 14.5137L12.5284 14.5177L12.5205 14.5219L12.7581 14.9618ZM19.6754 11.5382L19.4376 11.0983L19.6754 12.0382V11.5382ZM19.389 10.8255L19.6409 10.3936L19.6345 10.3898L19.628 10.3863L19.389 10.8255ZM12.7654 7.22185L12.5182 7.65658L12.5264 7.66105L12.7654 7.22185ZM29.2527 7.41003C29.2527 3.8011 26.3271 0.875488 22.7182 0.875488V1.87549C25.7748 1.87549 28.2527 4.35339 28.2527 7.41003H29.2527ZM29.2509 14.592L29.2527 7.41016L28.2527 7.40991L28.2509 14.5917L29.2509 14.592ZM22.7164 21.1264C26.3253 21.1264 29.2509 18.2008 29.2509 14.5919H28.2509C28.2509 17.6485 25.773 20.1264 22.7164 20.1264V21.1264ZM7.28455 21.1264H22.7164V20.1264H7.28455V21.1264ZM0.75 14.5919C0.75 18.2008 3.67562 21.1264 7.28455 21.1264V20.1264C4.2279 20.1264 1.75 17.6485 1.75 14.5919H0.75ZM0.75 7.41003V14.5919H1.75V7.41003H0.75ZM7.28455 0.875488C3.67562 0.875488 0.75 3.8011 0.75 7.41003H1.75C1.75 4.35339 4.2279 1.87549 7.28455 1.87549V0.875488ZM22.7182 0.875488H7.28455V1.87549H22.7182V0.875488ZM19.4554 11.0901L12.5363 14.5137L12.9798 15.41L19.8989 11.9864L19.4554 11.0901ZM19.6754 12.0382H19.6772V11.0382H19.6754V12.0382ZM19.1371 11.2574C19.1628 11.2724 19.198 11.2989 19.2324 11.3338C19.2674 11.3693 19.2881 11.3996 19.2964 11.4157C19.3084 11.4388 19.2815 11.4023 19.2913 11.3236C19.2968 11.2788 19.3139 11.2281 19.3469 11.1815C19.3792 11.1358 19.4153 11.1104 19.4376 11.0983L19.9131 11.9781C20.1142 11.8694 20.2546 11.6812 20.2837 11.4467C20.3087 11.245 20.2438 11.0697 20.1832 10.9535C20.0617 10.7203 19.8483 10.5145 19.6409 10.3936L19.1371 11.2574ZM12.5264 7.66105L19.15 11.2647L19.628 10.3863L13.0043 6.78264L12.5264 7.66105ZM12.0645 7.57639C12.0645 7.66799 12.0289 7.7326 12.0066 7.76274C11.9868 7.78948 11.9741 7.79464 11.9883 7.7853C12.0179 7.76584 12.0858 7.73444 12.1882 7.70796C12.2864 7.68256 12.388 7.66904 12.4693 7.66803C12.5096 7.66753 12.5368 7.67022 12.5513 7.6727C12.5695 7.67582 12.5522 7.67582 12.5182 7.6565L13.0125 6.78719C12.8254 6.68082 12.6053 6.66626 12.4568 6.66811C12.2874 6.67022 12.1058 6.69637 11.9378 6.73982C11.7739 6.78221 11.5925 6.84888 11.4395 6.94936C11.3094 7.03473 11.0645 7.23623 11.0645 7.57639H12.0645ZM12.0645 14.6037V7.57639H11.0645V14.6037H12.0645ZM12.5205 14.5219C12.5536 14.5041 12.5695 14.5045 12.5505 14.5075C12.5352 14.5099 12.5074 14.5123 12.4669 14.5115C12.3853 14.5098 12.2838 14.4956 12.186 14.47C12.0841 14.4432 12.0166 14.4118 11.9872 14.3925C11.973 14.3832 11.9859 14.3885 12.0059 14.4153C12.0283 14.4455 12.0645 14.5108 12.0645 14.6037H11.0645C11.0645 14.9434 11.31 15.1441 11.438 15.2282C11.5898 15.3279 11.7696 15.3945 11.932 15.4371C12.0985 15.4809 12.2784 15.5077 12.4461 15.5112C12.5933 15.5143 12.81 15.502 12.9957 15.4018L12.5205 14.5219Z" fill="#072D4F" fill-opacity="0.01"/>
</svg>
